<?xml version="1.0" encoding="UTF-8"?>
<svg version="1.1" xmlns="http://www.w3.org/2000/svg" width="512" height="768">
<path d="M0 0 C168.96 0 337.92 0 512 0 C512 253.44 512 506.88 512 768 C343.04 768 174.08 768 0 768 C0 514.56 0 261.12 0 0 Z " fill="#FEFEFE" transform="translate(0,0)"/>
<path d="M0 0 C63.36 0 126.72 0 192 0 C192 176.22 192 352.44 192 534 C128.64 534 65.28 534 0 534 C0 357.78 0 181.56 0 0 Z " fill="#FFFFFF" transform="translate(168,116)"/>
<path d="M0 0 C99.66 0 199.32 0 302 0 C302 215.49 302 430.98 302 653 C202.34 653 102.68 653 0 653 C0 437.51 0 222.02 0 0 Z M53 58 C53 234.22 53 410.44 53 592 C116.36 592 179.72 592 245 592 C245 415.78 245 239.56 245 58 C181.64 58 118.28 58 53 58 Z " fill="#000000" transform="translate(115,58)"/>
</svg>
